<svg width="378" height="66" viewBox="0 0 378 66" fill="none" xmlns="http://www.w3.org/2000/svg">
<path d="M0.75 33C0.75 28.7649 1.58417 24.5712 3.20488 20.6585C4.8256 16.7457 7.20112 13.1905 10.1958 10.1958C13.1905 7.20112 16.7457 4.8256 20.6585 3.20489C24.5712 1.58417 28.7649 0.75 33 0.75C37.2351 0.75 41.4288 1.58417 45.3415 3.20489C49.2543 4.8256 52.8095 7.20112 55.8042 10.1958C58.7989 13.1905 61.1744 16.7457 62.7951 20.6585C64.4158 24.5712 65.25 28.7649 65.25 33C65.25 41.5532 61.8522 49.7561 55.8042 55.8042C49.7561 61.8522 41.5532 65.25 33 65.25C24.4468 65.25 16.2439 61.8522 10.1958 55.8042C4.14776 49.7561 0.75 41.5532 0.75 33ZM33 16.875C32.2872 16.875 31.6037 17.1581 31.0997 17.6622C30.5956 18.1662 30.3125 18.8497 30.3125 19.5625V30.3125H19.5625C18.8497 30.3125 18.1662 30.5956 17.6622 31.0997C17.1581 31.6037 16.875 32.2872 16.875 33C16.875 33.7128 17.1581 34.3963 17.6622 34.9004C18.1662 35.4044 18.8497 35.6875 19.5625 35.6875H30.3125V46.4375C30.3125 47.1503 30.5956 47.8338 31.0997 48.3379C31.6037 48.8419 32.2872 49.125 33 49.125C33.7128 49.125 34.3963 48.8419 34.9004 48.3379C35.4044 47.8338 35.6875 47.1503 35.6875 46.4375V35.6875H46.4375C47.1503 35.6875 47.8338 35.4044 48.3379 34.9004C48.8419 34.3963 49.125 33.7128 49.125 33C49.125 32.2872 48.8419 31.6037 48.3379 31.0997C47.8338 30.5956 47.1503 30.3125 46.4375 30.3125H35.6875V19.5625C35.6875 18.8497 35.4044 18.1662 34.9004 17.6622C34.3963 17.1581 33.7128 16.875 33 16.875Z" fill="white" fill-opacity="0.75"/>
<path d="M106.24 55C105.899 55 105.579 54.872 105.28 54.616C105.024 54.36 104.896 54.04 104.896 53.656L105.024 53.08L120.448 11.8C120.747 10.7333 121.493 10.2 122.688 10.2H129.664C130.773 10.2 131.52 10.7333 131.904 11.8L147.328 53.08C147.371 53.208 147.392 53.4 147.392 53.656C147.392 54.04 147.264 54.36 147.008 54.616C146.752 54.872 146.453 55 146.112 55H140.544C139.989 55 139.563 54.872 139.264 54.616C138.965 54.36 138.773 54.0827 138.688 53.784L135.68 45.976H116.672L113.664 53.784C113.323 54.5947 112.704 55 111.808 55H106.24ZM133.44 38.616L126.144 18.84L118.912 38.616H133.44Z" fill="white" fill-opacity="0.75"/>
<path d="M164.576 55.64C160.267 55.64 156.96 54.2533 154.656 51.48C152.352 48.7067 151.115 45.016 150.944 40.408L150.88 38.296L150.944 36.248C151.072 31.768 152.288 28.12 154.592 25.304C156.939 22.488 160.267 21.08 164.576 21.08C168.715 21.08 172 22.488 174.432 25.304V11.096C174.432 10.6267 174.581 10.264 174.88 10.008C175.179 9.70933 175.541 9.56 175.968 9.56H181.408C181.877 9.56 182.24 9.70933 182.496 10.008C182.795 10.264 182.944 10.6267 182.944 11.096V53.464C182.944 53.8907 182.795 54.2533 182.496 54.552C182.24 54.8507 181.877 55 181.408 55H176.352C175.925 55 175.563 54.8507 175.264 54.552C174.965 54.2533 174.816 53.8907 174.816 53.464V51.096C172.384 54.1253 168.971 55.64 164.576 55.64ZM166.944 48.792C169.419 48.792 171.253 48.0027 172.448 46.424C173.643 44.8453 174.304 42.904 174.432 40.6C174.475 40.088 174.496 39.256 174.496 38.104C174.496 36.9947 174.475 36.184 174.432 35.672C174.347 33.5387 173.664 31.7253 172.384 30.232C171.147 28.696 169.333 27.928 166.944 27.928C162.336 27.928 159.883 30.7653 159.584 36.44L159.52 38.36L159.584 40.28C159.883 45.9547 162.336 48.792 166.944 48.792Z" fill="white" fill-opacity="0.75"/>
<path d="M203.826 55.64C199.517 55.64 196.21 54.2533 193.906 51.48C191.602 48.7067 190.365 45.016 190.194 40.408L190.13 38.296L190.194 36.248C190.322 31.768 191.538 28.12 193.842 25.304C196.189 22.488 199.517 21.08 203.826 21.08C207.965 21.08 211.25 22.488 213.682 25.304V11.096C213.682 10.6267 213.831 10.264 214.13 10.008C214.429 9.70933 214.791 9.56 215.218 9.56H220.658C221.127 9.56 221.49 9.70933 221.746 10.008C222.045 10.264 222.194 10.6267 222.194 11.096V53.464C222.194 53.8907 222.045 54.2533 221.746 54.552C221.49 54.8507 221.127 55 220.658 55H215.602C215.175 55 214.813 54.8507 214.514 54.552C214.215 54.2533 214.066 53.8907 214.066 53.464V51.096C211.634 54.1253 208.221 55.64 203.826 55.64ZM206.194 48.792C208.669 48.792 210.503 48.0027 211.698 46.424C212.893 44.8453 213.554 42.904 213.682 40.6C213.725 40.088 213.746 39.256 213.746 38.104C213.746 36.9947 213.725 36.184 213.682 35.672C213.597 33.5387 212.914 31.7253 211.634 30.232C210.397 28.696 208.583 27.928 206.194 27.928C201.586 27.928 199.133 30.7653 198.834 36.44L198.77 38.36L198.834 40.28C199.133 45.9547 201.586 48.792 206.194 48.792Z" fill="white" fill-opacity="0.75"/>
<path d="M255.947 55C255.52 55 255.157 54.8507 254.859 54.552C254.56 54.2533 254.411 53.8907 254.411 53.464V18.072H242.57C242.144 18.072 241.781 17.9227 241.482 17.624C241.184 17.3253 241.035 16.9627 241.035 16.536V11.8C241.035 11.3307 241.163 10.9467 241.419 10.648C241.717 10.3493 242.101 10.2 242.57 10.2H275.211C275.68 10.2 276.064 10.3493 276.362 10.648C276.661 10.9467 276.81 11.3307 276.81 11.8V16.536C276.81 16.9627 276.661 17.3253 276.362 17.624C276.064 17.9227 275.68 18.072 275.211 18.072H263.435V53.464C263.435 53.8907 263.285 54.2533 262.987 54.552C262.688 54.8507 262.304 55 261.835 55H255.947Z" fill="white" fill-opacity="0.75"/>
<path d="M286.451 55.64C284.275 55.64 282.269 55.2133 280.435 54.36C278.643 53.464 277.213 52.2693 276.147 50.776C275.123 49.2827 274.611 47.64 274.611 45.848C274.611 42.9467 275.784 40.6 278.13 38.808C280.477 37.016 283.698 35.8 287.794 35.16L296.562 33.88V32.536C296.562 30.6587 296.093 29.2507 295.155 28.312C294.216 27.3733 292.701 26.904 290.611 26.904C289.203 26.904 288.051 27.1813 287.155 27.736C286.301 28.248 285.619 28.76 285.107 29.272C284.595 29.8267 284.253 30.1893 284.082 30.36C283.912 30.872 283.592 31.128 283.122 31.128H278.194C277.81 31.128 277.469 31 277.171 30.744C276.915 30.488 276.786 30.1467 276.786 29.72C276.829 28.6533 277.341 27.4373 278.323 26.072C279.347 24.7067 280.904 23.5333 282.995 22.552C285.085 21.5707 287.645 21.08 290.674 21.08C295.709 21.08 299.378 22.2107 301.682 24.472C303.986 26.7333 305.138 29.6987 305.138 33.368V53.464C305.138 53.8907 304.989 54.2533 304.69 54.552C304.434 54.8507 304.072 55 303.603 55H298.418C297.992 55 297.629 54.8507 297.331 54.552C297.032 54.2533 296.883 53.8907 296.883 53.464V50.968C295.944 52.3333 294.6 53.464 292.85 54.36C291.144 55.2133 289.011 55.64 286.451 55.64ZM288.626 49.56C290.973 49.56 292.893 48.792 294.387 47.256C295.88 45.72 296.626 43.48 296.626 40.536V39.192L290.227 40.216C287.752 40.6 285.875 41.2187 284.595 42.072C283.357 42.9253 282.738 43.9707 282.738 45.208C282.738 46.5733 283.314 47.64 284.466 48.408C285.618 49.176 287.005 49.56 288.626 49.56Z" fill="white" fill-opacity="0.75"/>
<path d="M325.957 55.64C322.757 55.64 320.069 55.1707 317.893 54.232C315.717 53.2507 314.096 52.12 313.029 50.84C312.005 49.5173 311.493 48.3867 311.493 47.448C311.493 47.0213 311.642 46.68 311.941 46.424C312.24 46.168 312.581 46.04 312.965 46.04H318.021C318.405 46.04 318.725 46.1893 318.981 46.488C319.152 46.616 319.6 47 320.325 47.64C321.05 48.3227 321.904 48.856 322.885 49.24C323.866 49.624 324.954 49.816 326.149 49.816C327.856 49.816 329.264 49.4747 330.373 48.792C331.482 48.1093 332.037 47.1707 332.037 45.976C332.037 45.08 331.781 44.3547 331.269 43.8C330.8 43.2453 329.925 42.7547 328.645 42.328C327.365 41.8587 325.466 41.368 322.949 40.856C319.322 40.088 316.634 38.9147 314.885 37.336C313.178 35.7573 312.325 33.6667 312.325 31.064C312.325 29.3573 312.837 27.7573 313.861 26.264C314.885 24.728 316.4 23.4907 318.405 22.552C320.453 21.5707 322.885 21.08 325.701 21.08C328.56 21.08 331.034 21.5493 333.125 22.488C335.216 23.384 336.794 24.472 337.861 25.752C338.97 26.9893 339.525 28.0987 339.525 29.08C339.525 29.464 339.376 29.8053 339.077 30.104C338.821 30.36 338.501 30.488 338.117 30.488H333.381C333.04 30.488 332.677 30.3387 332.293 30.04C331.994 29.8267 331.525 29.4213 330.885 28.824C330.245 28.2267 329.498 27.7573 328.645 27.416C327.792 27.0747 326.789 26.904 325.637 26.904C324.058 26.904 322.821 27.2453 321.925 27.928C321.072 28.6107 320.645 29.5067 320.645 30.616C320.645 31.4267 320.858 32.088 321.285 32.6C321.712 33.112 322.544 33.6027 323.781 34.072C325.018 34.5413 326.874 35.0107 329.349 35.48C333.445 36.2907 336.368 37.5493 338.117 39.256C339.909 40.9627 340.805 43.0533 340.805 45.528C340.805 48.5147 339.504 50.9467 336.901 52.824C334.298 54.7013 330.65 55.64 325.957 55.64Z" fill="white" fill-opacity="0.75"/>
<path d="M349.012 55C348.585 55 348.222 54.8507 347.923 54.552C347.625 54.2533 347.475 53.8907 347.475 53.464V11.096C347.475 10.6267 347.625 10.264 347.923 10.008C348.222 9.70933 348.585 9.56 349.012 9.56H354.195C354.665 9.56 355.028 9.70933 355.284 10.008C355.582 10.264 355.732 10.6267 355.732 11.096V32.984L366.483 22.808C366.611 22.7227 366.825 22.552 367.124 22.296C367.38 22.0827 367.636 21.9333 367.892 21.848C368.148 21.7627 368.468 21.72 368.852 21.72H374.803C375.23 21.72 375.572 21.848 375.828 22.104C376.084 22.36 376.211 22.7013 376.211 23.128C376.211 23.512 375.998 23.896 375.572 24.28L362.388 36.632L377.172 52.504C377.598 52.9307 377.811 53.2933 377.811 53.592C377.811 54.0187 377.662 54.36 377.363 54.616C377.107 54.872 376.788 55 376.404 55H370.323C369.726 55 369.278 54.936 368.979 54.808C368.723 54.6373 368.382 54.3387 367.956 53.912L355.732 41.048V53.464C355.732 53.8907 355.582 54.2533 355.284 54.552C355.028 54.8507 354.665 55 354.195 55H349.012Z" fill="white" fill-opacity="0.75"/>
</svg>
