<svg width="24" height="24" viewBox="0 0 24 24" fill="none" xmlns="http://www.w3.org/2000/svg">
<path d="M18 0H6C2.68629 0 0 2.68629 0 6V18C0 21.3137 2.68629 24 6 24H18C21.3137 24 24 21.3137 24 18V6C24 2.68629 21.3137 0 18 0Z" fill="black" fill-opacity="0.25"/>
<path d="M12 7.5C12.8285 7.5 13.5 6.82843 13.5 6C13.5 5.17157 12.8285 4.5 12 4.5C11.1716 4.5 10.5 5.17157 10.5 6C10.5 6.82843 11.1716 7.5 12 7.5Z" fill="white"/>
<path d="M12 13.5C12.8285 13.5 13.5 12.8285 13.5 12C13.5 11.1716 12.8285 10.5 12 10.5C11.1716 10.5 10.5 11.1716 10.5 12C10.5 12.8285 11.1716 13.5 12 13.5Z" fill="white"/>
<path d="M12 19.5C12.8285 19.5 13.5 18.8285 13.5 18C13.5 17.1715 12.8285 16.5 12 16.5C11.1716 16.5 10.5 17.1715 10.5 18C10.5 18.8285 11.1716 19.5 12 19.5Z" fill="white"/>
</svg>
