<svg width="313" height="58" viewBox="0 0 313 58" fill="none" xmlns="http://www.w3.org/2000/svg">
<path d="M26 8.33336C13.3985 8.33336 2.75 18.9819 2.75 31.5834C2.75 44.1849 13.3985 54.8334 26 54.8334C38.6041 54.8334 49.25 44.1849 49.25 31.5834C49.25 18.9819 38.6041 8.33336 26 8.33336ZM38.9167 34.1667H23.4167V18.6667H28.5833V29H38.9167V34.1667ZM47.421 15.329L39.6452 7.57903L43.2928 3.91844L51.0687 11.6684L47.421 15.329ZM8.64517 3.92619L12.3083 7.57386L4.58417 15.3239L0.923584 11.6736L8.64517 3.92619Z" fill="white"/>
<path d="M104.976 36.464C104.421 36.9333 103.696 37.3173 102.8 37.616C101.947 37.872 100.944 38 99.792 38C98.256 38 96.976 37.808 95.952 37.424C94.9706 37.04 94.3306 36.3786 94.032 35.44C92.8373 31.6853 91.856 28.656 91.088 26.352C90.32 24.0053 89.7226 21.9573 89.296 20.208H88.976C88.848 22.7253 88.7413 25.0293 88.656 27.12C88.6133 29.168 88.5706 31.1733 88.528 33.136C88.528 35.0986 88.4853 37.0826 88.4 39.088C88.3573 41.0933 88.272 43.312 88.144 45.744C87.5893 45.9573 86.864 46.128 85.968 46.256C85.072 46.4266 84.176 46.512 83.28 46.512C81.4026 46.512 79.9306 46.2133 78.864 45.616C77.84 45.0186 77.328 43.9306 77.328 42.352L79.184 9.71197C79.5253 9.1573 80.272 8.55997 81.424 7.91997C82.576 7.27997 84.1973 6.95997 86.288 6.95997C88.5493 6.95997 90.32 7.32264 91.6 8.04797C92.88 8.73064 93.8186 9.86131 94.416 11.44C94.8 12.464 95.2053 13.6373 95.632 14.96C96.1013 16.2826 96.5493 17.648 96.976 19.056C97.4453 20.464 97.8933 21.872 98.32 23.28C98.7466 24.6453 99.1306 25.8826 99.472 26.992H99.792C100.816 23.408 101.84 19.952 102.864 16.624C103.888 13.2533 104.827 10.4373 105.68 8.17597C106.32 7.83464 107.131 7.5573 108.112 7.34397C109.136 7.08797 110.267 6.95997 111.504 6.95997C113.595 6.95997 115.301 7.27997 116.624 7.91997C117.947 8.5173 118.715 9.39197 118.928 10.544C119.099 11.3973 119.269 12.72 119.44 14.512C119.653 16.2613 119.867 18.2453 120.08 20.464C120.293 22.6826 120.507 25.0293 120.72 27.504C120.933 29.9786 121.125 32.368 121.296 34.672C121.509 36.9333 121.68 39.024 121.808 40.944C121.936 42.8213 122.021 44.272 122.064 45.296C121.339 45.7226 120.571 46.0213 119.76 46.192C118.992 46.4053 117.989 46.512 116.752 46.512C115.131 46.512 113.765 46.2346 112.656 45.68C111.547 45.1253 110.949 44.0373 110.864 42.416C110.608 37.7653 110.437 33.584 110.352 29.872C110.309 26.16 110.224 23.0453 110.096 20.528H109.776C109.349 22.192 108.731 24.2826 107.92 26.8C107.109 29.3173 106.128 32.5386 104.976 36.464Z" fill="white"/>
<path d="M132.254 38.064C131.785 36.9973 131.273 35.8026 130.718 34.48C130.206 33.1573 129.652 31.6426 129.054 29.936C128.5 28.2293 127.902 26.288 127.262 24.112C126.665 21.8933 126.025 19.3546 125.342 16.496C125.94 15.8986 126.729 15.3866 127.71 14.96C128.734 14.4906 129.844 14.256 131.038 14.256C132.532 14.256 133.769 14.576 134.75 15.216C135.732 15.8133 136.457 16.9653 136.926 18.672L141.982 36.272H142.238C142.75 34.8213 143.241 33.2426 143.71 31.536C144.222 29.8293 144.713 28.08 145.182 26.288C145.652 24.4533 146.078 22.64 146.462 20.848C146.889 19.0133 147.252 17.2213 147.55 15.472C149.086 14.6613 150.772 14.256 152.606 14.256C154.1 14.256 155.337 14.576 156.318 15.216C157.3 15.856 157.79 16.9653 157.79 18.544C157.79 19.696 157.641 21.04 157.342 22.576C157.044 24.0693 156.638 25.6693 156.126 27.376C155.657 29.0826 155.081 30.8533 154.398 32.688C153.758 34.48 153.076 36.2506 152.35 38C151.625 39.7493 150.878 41.4133 150.11 42.992C149.342 44.528 148.596 45.9146 147.87 47.152C146.676 49.2426 145.566 50.9493 144.542 52.272C143.518 53.5946 142.537 54.6186 141.598 55.344C140.66 56.112 139.721 56.624 138.782 56.88C137.844 57.1786 136.862 57.328 135.838 57.328C134.046 57.328 132.596 56.7946 131.486 55.728C130.377 54.6613 129.716 53.2746 129.502 51.568C130.868 50.5013 132.233 49.3066 133.598 47.984C134.964 46.704 136.201 45.3813 137.31 44.016C136.585 43.8026 135.796 43.312 134.942 42.544C134.132 41.7333 133.236 40.24 132.254 38.064Z" fill="white"/>
<path d="M174.493 16.176C174.194 15.7066 173.917 15.0666 173.661 14.256C173.405 13.4453 173.277 12.592 173.277 11.696C173.277 10.032 173.64 8.8373 174.365 8.11197C175.133 7.38664 176.114 7.02397 177.309 7.02397H205.213C205.512 7.4933 205.789 8.1333 206.045 8.94397C206.301 9.75464 206.429 10.608 206.429 11.504C206.429 13.168 206.045 14.3626 205.277 15.088C204.552 15.8133 203.592 16.176 202.397 16.176H195.293V45.744C194.824 45.872 194.077 46 193.053 46.128C192.072 46.256 191.09 46.32 190.109 46.32C189.128 46.32 188.253 46.2346 187.485 46.064C186.76 45.936 186.141 45.68 185.629 45.296C185.117 44.912 184.733 44.3786 184.477 43.696C184.221 43.0133 184.093 42.1173 184.093 41.008V16.176H174.493Z" fill="white"/>
<path d="M210.447 6.25597C210.447 4.63464 210.98 3.2693 212.047 2.15997C213.156 1.05064 214.607 0.495972 216.399 0.495972C218.191 0.495972 219.62 1.05064 220.687 2.15997C221.796 3.2693 222.351 4.63464 222.351 6.25597C222.351 7.87731 221.796 9.24264 220.687 10.352C219.62 11.4613 218.191 12.016 216.399 12.016C214.607 12.016 213.156 11.4613 212.047 10.352C210.98 9.24264 210.447 7.87731 210.447 6.25597ZM221.839 45.936C221.37 46.0213 220.666 46.128 219.727 46.256C218.831 46.4266 217.914 46.512 216.975 46.512C216.036 46.512 215.183 46.448 214.415 46.32C213.69 46.192 213.071 45.936 212.559 45.552C212.047 45.168 211.642 44.656 211.343 44.016C211.087 43.3333 210.959 42.4586 210.959 41.392V15.344C211.428 15.2586 212.111 15.152 213.007 15.024C213.946 14.8533 214.884 14.768 215.823 14.768C216.762 14.768 217.594 14.832 218.319 14.96C219.087 15.088 219.727 15.344 220.239 15.728C220.751 16.112 221.135 16.6453 221.391 17.328C221.69 17.968 221.839 18.8213 221.839 19.888V45.936Z" fill="white"/>
<path d="M243.677 13.936C245.427 13.936 247.133 14.192 248.797 14.704C250.504 15.1733 251.976 15.8986 253.213 16.88C254.493 16.0266 255.923 15.3226 257.501 14.768C259.123 14.2133 261.064 13.936 263.325 13.936C264.947 13.936 266.525 14.1493 268.061 14.576C269.64 15.0026 271.027 15.6853 272.221 16.624C273.459 17.52 274.44 18.736 275.165 20.272C275.891 21.7653 276.253 23.6 276.253 25.776V45.936C275.827 46.064 275.144 46.192 274.205 46.32C273.309 46.448 272.371 46.512 271.389 46.512C270.451 46.512 269.597 46.448 268.829 46.32C268.104 46.192 267.485 45.936 266.973 45.552C266.461 45.168 266.056 44.656 265.757 44.016C265.501 43.3333 265.373 42.4586 265.373 41.392V26.096C265.373 24.816 265.011 23.8986 264.285 23.344C263.56 22.7466 262.579 22.448 261.341 22.448C260.744 22.448 260.104 22.5973 259.421 22.896C258.739 23.152 258.227 23.4293 257.885 23.728C257.928 23.8986 257.949 24.0693 257.949 24.24C257.949 24.368 257.949 24.496 257.949 24.624V45.936C257.48 46.064 256.776 46.192 255.837 46.32C254.941 46.448 254.024 46.512 253.085 46.512C252.147 46.512 251.293 46.448 250.525 46.32C249.8 46.192 249.181 45.936 248.669 45.552C248.157 45.168 247.752 44.656 247.453 44.016C247.197 43.3333 247.069 42.4586 247.069 41.392V26.096C247.069 24.816 246.664 23.8986 245.853 23.344C245.085 22.7466 244.147 22.448 243.037 22.448C242.269 22.448 241.608 22.576 241.053 22.832C240.499 23.0453 240.029 23.2586 239.645 23.472V45.936C239.219 46.064 238.536 46.192 237.597 46.32C236.701 46.448 235.763 46.512 234.781 46.512C233.843 46.512 232.989 46.448 232.221 46.32C231.496 46.192 230.877 45.936 230.365 45.552C229.853 45.168 229.448 44.656 229.149 44.016C228.893 43.3333 228.765 42.4586 228.765 41.392V22.064C228.765 20.912 229 19.9946 229.469 19.312C229.981 18.6293 230.664 17.9893 231.517 17.392C232.968 16.368 234.76 15.536 236.893 14.896C239.069 14.256 241.331 13.936 243.677 13.936Z" fill="white"/>
<path d="M299.338 47.024C296.821 47.024 294.474 46.6826 292.298 46C290.165 45.2746 288.288 44.208 286.666 42.8C285.088 41.392 283.829 39.6213 282.89 37.488C281.994 35.3546 281.546 32.8586 281.546 30C281.546 27.184 281.994 24.7733 282.89 22.768C283.829 20.72 285.045 19.056 286.538 17.776C288.032 16.4533 289.738 15.4933 291.658 14.896C293.578 14.256 295.541 13.936 297.546 13.936C299.808 13.936 301.856 14.2773 303.69 14.96C305.568 15.6426 307.168 16.5813 308.49 17.776C309.856 18.9706 310.901 20.4 311.626 22.064C312.394 23.728 312.778 25.5413 312.778 27.504C312.778 28.9546 312.373 30.064 311.562 30.832C310.752 31.6 309.621 32.0906 308.17 32.304L292.362 34.672C292.832 36.08 293.792 37.1466 295.242 37.872C296.693 38.5546 298.357 38.896 300.234 38.896C301.984 38.896 303.626 38.6826 305.162 38.256C306.741 37.7866 308.021 37.2533 309.002 36.656C309.685 37.0826 310.261 37.68 310.73 38.448C311.2 39.216 311.434 40.0266 311.434 40.88C311.434 42.8 310.538 44.2293 308.746 45.168C307.381 45.8933 305.845 46.384 304.138 46.64C302.432 46.896 300.832 47.024 299.338 47.024ZM297.546 21.872C296.522 21.872 295.626 22.0426 294.858 22.384C294.133 22.7253 293.536 23.1733 293.066 23.728C292.597 24.24 292.234 24.8373 291.978 25.52C291.765 26.16 291.637 26.8213 291.594 27.504L302.538 25.712C302.41 24.8586 301.941 24.0053 301.13 23.152C300.32 22.2986 299.125 21.872 297.546 21.872Z" fill="white"/>
</svg>
